# xmcd CD database file
#
# Track frame offsets:
#	150
#	13250
#	26480
#	38463
#	52975
#	64245
#	82655
#	97688
#	109150
#	122868
#	137050
#	146785
#	163608
#	179433
#	199228
#
# Disc length: 2836 seconds
#
# Revision: 0
# Processed by: cddbd v1.4PL0 Copyright (c) Steve Scherf et al.
# Submitted via: CDex 1.50Beta7
#
DISCID=c50b120f
DTITLE=Houston Stackhouse - Big Road Bluse
DYEAR=1900
DGENRE=Blues
TTITLE0=Bye Bye Blues
TTITLE1=Big Road Blues
TTITLE2=Mercy Blues
TTITLE3=Mean Black Spider
TTITLE4=Traveling Blues
TTITLE5=That's All Right
TTITLE6=Sweet Home Chicago
TTITLE7=I Hate To Hear My Good Girl
TTITLE8=Kind Hearted Woman Blues
TTITLE9=Dust My Broom
TTITLE10=Stackhouse Boogie
TTITLE11=Bricks On My Pillow
TTITLE12=Cool Water Blues
TTITLE13=Cryin' Won't Help Me
TTITLE14=Kind Hearted Woman Blues
EXTD=
EXTT0=
EXTT1=
EXTT2=
EXTT3=
EXTT4=
EXTT5=
EXTT6=
EXTT7=
EXTT8=
EXTT9=
EXTT10=
EXTT11=
EXTT12=
EXTT13=
EXTT14=
PLAYORDER=
